<mxfile host="app.diagrams.net" modified="2024-04-18T09:15:01.973Z" agent="Mozilla/5.0 (Windows NT 10.0; Win64; x64) AppleWebKit/537.36 (KHTML, like Gecko) Chrome/123.0.0.0 Safari/537.36 Edg/123.0.0.0" etag="tD1xWXESgPR4K4MsOgCg" version="24.2.5" type="github">
  <diagram name="Page-1" id="b-QOssr1jysgASMIiJqu">
    <mxGraphModel dx="1191" dy="741" grid="0" gridSize="10" guides="1" tooltips="1" connect="1" arrows="1" fold="1" page="1" pageScale="1" pageWidth="1100" pageHeight="850" background="#000000" math="0" shadow="0">
      <root>
        <mxCell id="0" />
        <mxCell id="1" parent="0" />
        <mxCell id="X40Ax4ZSxrvuXloQCNq9-12" value="" style="edgeStyle=orthogonalEdgeStyle;rounded=0;orthogonalLoop=1;jettySize=auto;html=1;" edge="1" parent="1" source="X40Ax4ZSxrvuXloQCNq9-2" target="X40Ax4ZSxrvuXloQCNq9-8">
          <mxGeometry relative="1" as="geometry" />
        </mxCell>
        <mxCell id="X40Ax4ZSxrvuXloQCNq9-2" value="&lt;font color=&quot;#f7f7f7&quot;&gt;SVBDSNSQLP03\SHAENGP01&lt;/font&gt;" style="sketch=0;pointerEvents=1;shadow=0;dashed=0;html=1;strokeColor=none;fillColor=#505050;labelPosition=center;verticalLabelPosition=bottom;verticalAlign=top;outlineConnect=0;align=center;shape=mxgraph.office.servers.windows_server;" vertex="1" parent="1">
          <mxGeometry x="122" y="201" width="87" height="80" as="geometry" />
        </mxCell>
        <mxCell id="X40Ax4ZSxrvuXloQCNq9-6" value="" style="sketch=0;pointerEvents=1;shadow=0;dashed=0;html=1;strokeColor=none;labelPosition=center;verticalLabelPosition=bottom;verticalAlign=top;outlineConnect=0;align=center;shape=mxgraph.office.servers.server_generic;fillColor=#CCCBCB;" vertex="1" parent="1">
          <mxGeometry x="935" y="495" width="44" height="88" as="geometry" />
        </mxCell>
        <mxCell id="X40Ax4ZSxrvuXloQCNq9-8" value="&lt;font color=&quot;#fcfcfc&quot;&gt;SVBECAMBBQ01&lt;/font&gt;" style="sketch=0;pointerEvents=1;shadow=0;dashed=0;html=1;strokeColor=none;fillColor=#505050;labelPosition=center;verticalLabelPosition=bottom;verticalAlign=top;outlineConnect=0;align=center;shape=mxgraph.office.servers.windows_server;" vertex="1" parent="1">
          <mxGeometry x="122" y="441" width="87" height="80" as="geometry" />
        </mxCell>
        <mxCell id="X40Ax4ZSxrvuXloQCNq9-9" value="&lt;font color=&quot;#f7f7f7&quot;&gt;SVBECAMBBQ02&lt;/font&gt;" style="sketch=0;pointerEvents=1;shadow=0;dashed=0;html=1;strokeColor=none;fillColor=#505050;labelPosition=center;verticalLabelPosition=bottom;verticalAlign=top;outlineConnect=0;align=center;shape=mxgraph.office.servers.windows_server;" vertex="1" parent="1">
          <mxGeometry x="122" y="618" width="87" height="80" as="geometry" />
        </mxCell>
        <mxCell id="X40Ax4ZSxrvuXloQCNq9-10" value="" style="sketch=0;pointerEvents=1;shadow=0;dashed=0;html=1;strokeColor=none;labelPosition=center;verticalLabelPosition=bottom;verticalAlign=top;outlineConnect=0;align=center;shape=mxgraph.office.servers.server_generic;fillColor=#CCCBCB;" vertex="1" parent="1">
          <mxGeometry x="935" y="367" width="44" height="88" as="geometry" />
        </mxCell>
        <mxCell id="X40Ax4ZSxrvuXloQCNq9-11" value="&lt;font color=&quot;#fcfcfc&quot;&gt;SVBDSNSQLQ01&lt;/font&gt;" style="sketch=0;pointerEvents=1;shadow=0;dashed=0;html=1;strokeColor=none;fillColor=#505050;labelPosition=center;verticalLabelPosition=bottom;verticalAlign=top;outlineConnect=0;align=center;shape=mxgraph.office.servers.windows_server;" vertex="1" parent="1">
          <mxGeometry x="622" y="441" width="87" height="80" as="geometry" />
        </mxCell>
        <mxCell id="X40Ax4ZSxrvuXloQCNq9-14" value="&lt;font color=&quot;#f7f7f7&quot;&gt;H:/AuditLogC2&lt;/font&gt;" style="sketch=0;pointerEvents=1;shadow=0;dashed=0;html=1;strokeColor=none;fillColor=#505050;labelPosition=center;verticalLabelPosition=bottom;verticalAlign=top;outlineConnect=0;align=center;shape=mxgraph.office.concepts.folder_open;" vertex="1" parent="1">
          <mxGeometry x="365" y="223" width="37" height="28" as="geometry" />
        </mxCell>
        <mxCell id="X40Ax4ZSxrvuXloQCNq9-16" value="&lt;span style=&quot;color: rgb(247, 247, 247); text-wrap: wrap; margin: 0px; padding: 0px; user-select: text; -webkit-user-drag: none; -webkit-tap-highlight-color: transparent; text-align: left; font-size: 10.5pt; font-family: Calibri, sans-serif; line-height: 17px; font-variant-ligatures: none !important;&quot; lang=&quot;EN-US&quot; class=&quot;TextRun SCXO229242887 BCX8&quot; data-contrast=&quot;auto&quot;&gt;D:/server/wildfly21/standalone/log/&lt;/span&gt;&lt;span style=&quot;color: rgb(247, 247, 247); text-wrap: wrap; margin: 0px; padding: 0px; user-select: text; -webkit-user-drag: none; -webkit-tap-highlight-color: transparent; text-align: left; font-size: 10.5pt; line-height: 17px; font-family: Calibri, sans-serif;&quot; class=&quot;EOP SCXO229242887 BCX8&quot;&gt;&amp;nbsp;&lt;/span&gt;" style="sketch=0;pointerEvents=1;shadow=0;dashed=0;html=1;strokeColor=none;fillColor=#505050;labelPosition=center;verticalLabelPosition=bottom;verticalAlign=top;outlineConnect=0;align=center;shape=mxgraph.office.concepts.folder_open;" vertex="1" parent="1">
          <mxGeometry x="365" y="555" width="37" height="28" as="geometry" />
        </mxCell>
      </root>
    </mxGraphModel>
  </diagram>
</mxfile>
